<svg xmlns="http://www.w3.org/2000/svg" width="1040" height="720" viewBox="0 0 1040 720">
  <rect width="1040" height="720" fill="#0d1117" />
  <g font-family="'Courier New', monospace">
    <rect x="20" y="20" width="40" height="40" fill="#21262d" stroke="#30363d" stroke-width="1" rx="4" ry="4" />
    <rect x="62" y="20" width="40" height="40" fill="#21262d" stroke="#30363d" stroke-width="1" rx="4" ry="4" />
    <rect x="104" y="20" width="40" height="40" fill="#21262d" stroke="#30363d" stroke-width="1" rx="4" ry="4" />
    <rect x="146" y="20" width="40" height="40" fill="#21262d" stroke="#30363d" stroke-width="1" rx="4" ry="4" />
    <rect x="188" y="20" width="40" height="40" fill="#21262d" stroke="#30363d" stroke-width="1" rx="4" ry="4" />
    <rect x="230" y="20" width="40" height="40" fill="#21262d" stroke="#30363d" stroke-width="1" rx="4" ry="4" />
    <rect x="272" y="20" width="40" height="40" fill="#21262d" stroke="#30363d" stroke-width="1" rx="4" ry="4" />
    <rect x="314" y="20" width="40" height="40" fill="#21262d" stroke="#30363d" stroke-width="1" rx="4" ry="4" />
    <rect x="356" y="20" width="40" height="40" fill="#21262d" stroke="#30363d" stroke-width="1" rx="4" ry="4" />
    <rect x="398" y="20" width="40" height="40" fill="#21262d" stroke="#30363d" stroke-width="1" rx="4" ry="4" />
    <rect x="440" y="20" width="40" height="40" fill="#21262d" stroke="#30363d" stroke-width="1" rx="4" ry="4" />
    <rect x="482" y="20" width="40" height="40" fill="#21262d" stroke="#30363d" stroke-width="1" rx="4" ry="4" />
    <rect x="524" y="20" width="40" height="40" fill="#21262d" stroke="#30363d" stroke-width="1" rx="4" ry="4" />
    <rect x="566" y="20" width="40" height="40" fill="#21262d" stroke="#30363d" stroke-width="1" rx="4" ry="4" />
    <rect x="608" y="20" width="40" height="40" fill="#21262d" stroke="#30363d" stroke-width="1" rx="4" ry="4" />
    <rect x="650" y="20" width="40" height="40" fill="#21262d" stroke="#30363d" stroke-width="1" rx="4" ry="4" />
    <rect x="692" y="20" width="40" height="40" fill="#3b49dc" stroke="#2f3ab0" stroke-width="1" rx="4" ry="4" />
    <text x="712" y="45" fill="#ffffff" font-size="12" text-anchor="middle" font-weight="bold">NO</text>
    <rect x="734" y="20" width="40" height="40" fill="#3b49dc" stroke="#2f3ab0" stroke-width="1" rx="4" ry="4" />
    <text x="754" y="45" fill="#ffffff" font-size="12" text-anchor="middle" font-weight="bold">NO</text>
    <rect x="776" y="20" width="40" height="40" fill="#3b49dc" stroke="#2f3ab0" stroke-width="1" rx="4" ry="4" />
    <text x="796" y="45" fill="#ffffff" font-size="12" text-anchor="middle" font-weight="bold">NO</text>
    <rect x="818" y="20" width="40" height="40" fill="#3b49dc" stroke="#2f3ab0" stroke-width="1" rx="4" ry="4" />
    <text x="838" y="45" fill="#ffffff" font-size="12" text-anchor="middle" font-weight="bold">NO</text>
    <rect x="20" y="62" width="40" height="40" fill="#21262d" stroke="#30363d" stroke-width="1" rx="4" ry="4" />
    <rect x="62" y="62" width="40" height="40" fill="#21262d" stroke="#30363d" stroke-width="1" rx="4" ry="4" />
    <rect x="104" y="62" width="40" height="40" fill="#3bdcbc" stroke="#2fb096" stroke-width="1" rx="4" ry="4" />
    <text x="124" y="87" fill="#ffffff" font-size="12" text-anchor="middle" font-weight="bold">EE</text>
    <rect x="146" y="62" width="40" height="40" fill="#dca13b" stroke="#b0802f" stroke-width="1" rx="4" ry="4" />
    <text x="166" y="87" fill="#ffffff" font-size="12" text-anchor="middle" font-weight="bold">LA</text>
    <rect x="188" y="62" width="40" height="40" fill="#3bdcbc" stroke="#2fb096" stroke-width="1" rx="4" ry="4" />
    <text x="208" y="87" fill="#ffffff" font-size="12" text-anchor="middle" font-weight="bold">EE</text>
    <rect x="230" y="62" width="40" height="40" fill="#21262d" stroke="#30363d" stroke-width="1" rx="4" ry="4" />
    <rect x="272" y="62" width="40" height="40" fill="#21262d" stroke="#30363d" stroke-width="1" rx="4" ry="4" />
    <rect x="314" y="62" width="40" height="40" fill="#21262d" stroke="#30363d" stroke-width="1" rx="4" ry="4" />
    <rect x="356" y="62" width="40" height="40" fill="#21262d" stroke="#30363d" stroke-width="1" rx="4" ry="4" />
    <rect x="398" y="62" width="40" height="40" fill="#21262d" stroke="#30363d" stroke-width="1" rx="4" ry="4" />
    <rect x="440" y="62" width="40" height="40" fill="#21262d" stroke="#30363d" stroke-width="1" rx="4" ry="4" />
    <rect x="482" y="62" width="40" height="40" fill="#21262d" stroke="#30363d" stroke-width="1" rx="4" ry="4" />
    <rect x="524" y="62" width="40" height="40" fill="#21262d" stroke="#30363d" stroke-width="1" rx="4" ry="4" />
    <rect x="566" y="62" width="40" height="40" fill="#21262d" stroke="#30363d" stroke-width="1" rx="4" ry="4" />
    <rect x="608" y="62" width="40" height="40" fill="#21262d" stroke="#30363d" stroke-width="1" rx="4" ry="4" />
    <rect x="650" y="62" width="40" height="40" fill="#21262d" stroke="#30363d" stroke-width="1" rx="4" ry="4" />
    <rect x="692" y="62" width="40" height="40" fill="#3b49dc" stroke="#2f3ab0" stroke-width="1" rx="4" ry="4" />
    <text x="712" y="87" fill="#ffffff" font-size="12" text-anchor="middle" font-weight="bold">NO</text>
    <rect x="734" y="62" width="40" height="40" fill="#3b49dc" stroke="#2f3ab0" stroke-width="1" rx="4" ry="4" />
    <text x="754" y="87" fill="#ffffff" font-size="12" text-anchor="middle" font-weight="bold">NO</text>
    <rect x="776" y="62" width="40" height="40" fill="#3b49dc" stroke="#2f3ab0" stroke-width="1" rx="4" ry="4" />
    <text x="796" y="87" fill="#ffffff" font-size="12" text-anchor="middle" font-weight="bold">NO</text>
    <rect x="818" y="62" width="40" height="40" fill="#3b49dc" stroke="#2f3ab0" stroke-width="1" rx="4" ry="4" />
    <text x="838" y="87" fill="#ffffff" font-size="12" text-anchor="middle" font-weight="bold">NO</text>
    <rect x="20" y="104" width="40" height="40" fill="#21262d" stroke="#30363d" stroke-width="1" rx="4" ry="4" />
    <rect x="62" y="104" width="40" height="40" fill="#21262d" stroke="#30363d" stroke-width="1" rx="4" ry="4" />
    <rect x="104" y="104" width="40" height="40" fill="#3bdcbc" stroke="#2fb096" stroke-width="1" rx="4" ry="4" />
    <text x="124" y="129" fill="#ffffff" font-size="12" text-anchor="middle" font-weight="bold">EE</text>
    <rect x="146" y="104" width="40" height="40" fill="#3bdcbc" stroke="#2fb096" stroke-width="1" rx="4" ry="4" />
    <text x="166" y="129" fill="#ffffff" font-size="12" text-anchor="middle" font-weight="bold">EE</text>
    <rect x="188" y="104" width="40" height="40" fill="#3bdcbc" stroke="#2fb096" stroke-width="1" rx="4" ry="4" />
    <text x="208" y="129" fill="#ffffff" font-size="12" text-anchor="middle" font-weight="bold">EE</text>
    <rect x="230" y="104" width="40" height="40" fill="#3bdcbc" stroke="#2fb096" stroke-width="1" rx="4" ry="4" />
    <text x="250" y="129" fill="#ffffff" font-size="12" text-anchor="middle" font-weight="bold">EE</text>
    <rect x="272" y="104" width="40" height="40" fill="#21262d" stroke="#30363d" stroke-width="1" rx="4" ry="4" />
    <rect x="314" y="104" width="40" height="40" fill="#21262d" stroke="#30363d" stroke-width="1" rx="4" ry="4" />
    <rect x="356" y="104" width="40" height="40" fill="#21262d" stroke="#30363d" stroke-width="1" rx="4" ry="4" />
    <rect x="398" y="104" width="40" height="40" fill="#21262d" stroke="#30363d" stroke-width="1" rx="4" ry="4" />
    <rect x="440" y="104" width="40" height="40" fill="#21262d" stroke="#30363d" stroke-width="1" rx="4" ry="4" />
    <rect x="482" y="104" width="40" height="40" fill="#21262d" stroke="#30363d" stroke-width="1" rx="4" ry="4" />
    <rect x="524" y="104" width="40" height="40" fill="#21262d" stroke="#30363d" stroke-width="1" rx="4" ry="4" />
    <rect x="566" y="104" width="40" height="40" fill="#21262d" stroke="#30363d" stroke-width="1" rx="4" ry="4" />
    <rect x="608" y="104" width="40" height="40" fill="#21262d" stroke="#30363d" stroke-width="1" rx="4" ry="4" />
    <rect x="650" y="104" width="40" height="40" fill="#21262d" stroke="#30363d" stroke-width="1" rx="4" ry="4" />
    <rect x="692" y="104" width="40" height="40" fill="#21262d" stroke="#30363d" stroke-width="1" rx="4" ry="4" />
    <rect x="734" y="104" width="40" height="40" fill="#3b49dc" stroke="#2f3ab0" stroke-width="1" rx="4" ry="4" />
    <text x="754" y="129" fill="#ffffff" font-size="12" text-anchor="middle" font-weight="bold">NO</text>
    <rect x="776" y="104" width="40" height="40" fill="#3b49dc" stroke="#2f3ab0" stroke-width="1" rx="4" ry="4" />
    <text x="796" y="129" fill="#ffffff" font-size="12" text-anchor="middle" font-weight="bold">NO</text>
    <rect x="818" y="104" width="40" height="40" fill="#3b49dc" stroke="#2f3ab0" stroke-width="1" rx="4" ry="4" />
    <text x="838" y="129" fill="#ffffff" font-size="12" text-anchor="middle" font-weight="bold">NO</text>
    <rect x="20" y="146" width="40" height="40" fill="#21262d" stroke="#30363d" stroke-width="1" rx="4" ry="4" />
    <rect x="62" y="146" width="40" height="40" fill="#21262d" stroke="#30363d" stroke-width="1" rx="4" ry="4" />
    <rect x="104" y="146" width="40" height="40" fill="#21262d" stroke="#30363d" stroke-width="1" rx="4" ry="4" />
    <rect x="146" y="146" width="40" height="40" fill="#21262d" stroke="#30363d" stroke-width="1" rx="4" ry="4" />
    <rect x="188" y="146" width="40" height="40" fill="#21262d" stroke="#30363d" stroke-width="1" rx="4" ry="4" />
    <rect x="230" y="146" width="40" height="40" fill="#21262d" stroke="#30363d" stroke-width="1" rx="4" ry="4" />
    <rect x="272" y="146" width="40" height="40" fill="#21262d" stroke="#30363d" stroke-width="1" rx="4" ry="4" />
    <rect x="314" y="146" width="40" height="40" fill="#21262d" stroke="#30363d" stroke-width="1" rx="4" ry="4" />
    <rect x="356" y="146" width="40" height="40" fill="#21262d" stroke="#30363d" stroke-width="1" rx="4" ry="4" />
    <rect x="398" y="146" width="40" height="40" fill="#21262d" stroke="#30363d" stroke-width="1" rx="4" ry="4" />
    <rect x="440" y="146" width="40" height="40" fill="#21262d" stroke="#30363d" stroke-width="1" rx="4" ry="4" />
    <rect x="482" y="146" width="40" height="40" fill="#21262d" stroke="#30363d" stroke-width="1" rx="4" ry="4" />
    <rect x="524" y="146" width="40" height="40" fill="#21262d" stroke="#30363d" stroke-width="1" rx="4" ry="4" />
    <rect x="566" y="146" width="40" height="40" fill="#21262d" stroke="#30363d" stroke-width="1" rx="4" ry="4" />
    <rect x="608" y="146" width="40" height="40" fill="#21262d" stroke="#30363d" stroke-width="1" rx="4" ry="4" />
    <rect x="650" y="146" width="40" height="40" fill="#21262d" stroke="#30363d" stroke-width="1" rx="4" ry="4" />
    <rect x="692" y="146" width="40" height="40" fill="#21262d" stroke="#30363d" stroke-width="1" rx="4" ry="4" />
    <rect x="734" y="146" width="40" height="40" fill="#21262d" stroke="#30363d" stroke-width="1" rx="4" ry="4" />
    <rect x="776" y="146" width="40" height="40" fill="#3b49dc" stroke="#2f3ab0" stroke-width="1" rx="4" ry="4" />
    <text x="796" y="171" fill="#ffffff" font-size="12" text-anchor="middle" font-weight="bold">NO</text>
    <rect x="818" y="146" width="40" height="40" fill="#3b49dc" stroke="#2f3ab0" stroke-width="1" rx="4" ry="4" />
    <text x="838" y="171" fill="#ffffff" font-size="12" text-anchor="middle" font-weight="bold">NO</text>
    <rect x="20" y="188" width="40" height="40" fill="#21262d" stroke="#30363d" stroke-width="1" rx="4" ry="4" />
    <rect x="62" y="188" width="40" height="40" fill="#21262d" stroke="#30363d" stroke-width="1" rx="4" ry="4" />
    <rect x="104" y="188" width="40" height="40" fill="#21262d" stroke="#30363d" stroke-width="1" rx="4" ry="4" />
    <rect x="146" y="188" width="40" height="40" fill="#21262d" stroke="#30363d" stroke-width="1" rx="4" ry="4" />
    <rect x="188" y="188" width="40" height="40" fill="#21262d" stroke="#30363d" stroke-width="1" rx="4" ry="4" />
    <rect x="230" y="188" width="40" height="40" fill="#21262d" stroke="#30363d" stroke-width="1" rx="4" ry="4" />
    <rect x="272" y="188" width="40" height="40" fill="#21262d" stroke="#30363d" stroke-width="1" rx="4" ry="4" />
    <rect x="314" y="188" width="40" height="40" fill="#21262d" stroke="#30363d" stroke-width="1" rx="4" ry="4" />
    <rect x="356" y="188" width="40" height="40" fill="#21262d" stroke="#30363d" stroke-width="1" rx="4" ry="4" />
    <rect x="398" y="188" width="40" height="40" fill="#21262d" stroke="#30363d" stroke-width="1" rx="4" ry="4" />
    <rect x="440" y="188" width="40" height="40" fill="#21262d" stroke="#30363d" stroke-width="1" rx="4" ry="4" />
    <rect x="482" y="188" width="40" height="40" fill="#21262d" stroke="#30363d" stroke-width="1" rx="4" ry="4" />
    <rect x="524" y="188" width="40" height="40" fill="#21262d" stroke="#30363d" stroke-width="1" rx="4" ry="4" />
    <rect x="566" y="188" width="40" height="40" fill="#21262d" stroke="#30363d" stroke-width="1" rx="4" ry="4" />
    <rect x="608" y="188" width="40" height="40" fill="#21262d" stroke="#30363d" stroke-width="1" rx="4" ry="4" />
    <rect x="650" y="188" width="40" height="40" fill="#21262d" stroke="#30363d" stroke-width="1" rx="4" ry="4" />
    <rect x="692" y="188" width="40" height="40" fill="#21262d" stroke="#30363d" stroke-width="1" rx="4" ry="4" />
    <rect x="734" y="188" width="40" height="40" fill="#21262d" stroke="#30363d" stroke-width="1" rx="4" ry="4" />
    <rect x="776" y="188" width="40" height="40" fill="#21262d" stroke="#30363d" stroke-width="1" rx="4" ry="4" />
    <rect x="818" y="188" width="40" height="40" fill="#21262d" stroke="#30363d" stroke-width="1" rx="4" ry="4" />
    <rect x="20" y="230" width="40" height="40" fill="#21262d" stroke="#30363d" stroke-width="1" rx="4" ry="4" />
    <rect x="62" y="230" width="40" height="40" fill="#21262d" stroke="#30363d" stroke-width="1" rx="4" ry="4" />
    <rect x="104" y="230" width="40" height="40" fill="#21262d" stroke="#30363d" stroke-width="1" rx="4" ry="4" />
    <rect x="146" y="230" width="40" height="40" fill="#21262d" stroke="#30363d" stroke-width="1" rx="4" ry="4" />
    <rect x="188" y="230" width="40" height="40" fill="#21262d" stroke="#30363d" stroke-width="1" rx="4" ry="4" />
    <rect x="230" y="230" width="40" height="40" fill="#21262d" stroke="#30363d" stroke-width="1" rx="4" ry="4" />
    <rect x="272" y="230" width="40" height="40" fill="#21262d" stroke="#30363d" stroke-width="1" rx="4" ry="4" />
    <rect x="314" y="230" width="40" height="40" fill="#21262d" stroke="#30363d" stroke-width="1" rx="4" ry="4" />
    <rect x="356" y="230" width="40" height="40" fill="#21262d" stroke="#30363d" stroke-width="1" rx="4" ry="4" />
    <rect x="398" y="230" width="40" height="40" fill="#21262d" stroke="#30363d" stroke-width="1" rx="4" ry="4" />
    <rect x="440" y="230" width="40" height="40" fill="#21262d" stroke="#30363d" stroke-width="1" rx="4" ry="4" />
    <rect x="482" y="230" width="40" height="40" fill="#21262d" stroke="#30363d" stroke-width="1" rx="4" ry="4" />
    <rect x="524" y="230" width="40" height="40" fill="#21262d" stroke="#30363d" stroke-width="1" rx="4" ry="4" />
    <rect x="566" y="230" width="40" height="40" fill="#21262d" stroke="#30363d" stroke-width="1" rx="4" ry="4" />
    <rect x="608" y="230" width="40" height="40" fill="#21262d" stroke="#30363d" stroke-width="1" rx="4" ry="4" />
    <rect x="650" y="230" width="40" height="40" fill="#21262d" stroke="#30363d" stroke-width="1" rx="4" ry="4" />
    <rect x="692" y="230" width="40" height="40" fill="#21262d" stroke="#30363d" stroke-width="1" rx="4" ry="4" />
    <rect x="734" y="230" width="40" height="40" fill="#21262d" stroke="#30363d" stroke-width="1" rx="4" ry="4" />
    <rect x="776" y="230" width="40" height="40" fill="#21262d" stroke="#30363d" stroke-width="1" rx="4" ry="4" />
    <rect x="818" y="230" width="40" height="40" fill="#21262d" stroke="#30363d" stroke-width="1" rx="4" ry="4" />
    <rect x="20" y="272" width="40" height="40" fill="#21262d" stroke="#30363d" stroke-width="1" rx="4" ry="4" />
    <rect x="62" y="272" width="40" height="40" fill="#21262d" stroke="#30363d" stroke-width="1" rx="4" ry="4" />
    <rect x="104" y="272" width="40" height="40" fill="#21262d" stroke="#30363d" stroke-width="1" rx="4" ry="4" />
    <rect x="146" y="272" width="40" height="40" fill="#21262d" stroke="#30363d" stroke-width="1" rx="4" ry="4" />
    <rect x="188" y="272" width="40" height="40" fill="#21262d" stroke="#30363d" stroke-width="1" rx="4" ry="4" />
    <rect x="230" y="272" width="40" height="40" fill="#21262d" stroke="#30363d" stroke-width="1" rx="4" ry="4" />
    <rect x="272" y="272" width="40" height="40" fill="#21262d" stroke="#30363d" stroke-width="1" rx="4" ry="4" />
    <rect x="314" y="272" width="40" height="40" fill="#21262d" stroke="#30363d" stroke-width="1" rx="4" ry="4" />
    <rect x="356" y="272" width="40" height="40" fill="#21262d" stroke="#30363d" stroke-width="1" rx="4" ry="4" />
    <rect x="398" y="272" width="40" height="40" fill="#21262d" stroke="#30363d" stroke-width="1" rx="4" ry="4" />
    <rect x="440" y="272" width="40" height="40" fill="#21262d" stroke="#30363d" stroke-width="1" rx="4" ry="4" />
    <rect x="482" y="272" width="40" height="40" fill="#21262d" stroke="#30363d" stroke-width="1" rx="4" ry="4" />
    <rect x="524" y="272" width="40" height="40" fill="#21262d" stroke="#30363d" stroke-width="1" rx="4" ry="4" />
    <rect x="566" y="272" width="40" height="40" fill="#21262d" stroke="#30363d" stroke-width="1" rx="4" ry="4" />
    <rect x="608" y="272" width="40" height="40" fill="#21262d" stroke="#30363d" stroke-width="1" rx="4" ry="4" />
    <rect x="650" y="272" width="40" height="40" fill="#21262d" stroke="#30363d" stroke-width="1" rx="4" ry="4" />
    <rect x="692" y="272" width="40" height="40" fill="#21262d" stroke="#30363d" stroke-width="1" rx="4" ry="4" />
    <rect x="734" y="272" width="40" height="40" fill="#21262d" stroke="#30363d" stroke-width="1" rx="4" ry="4" />
    <rect x="776" y="272" width="40" height="40" fill="#21262d" stroke="#30363d" stroke-width="1" rx="4" ry="4" />
    <rect x="818" y="272" width="40" height="40" fill="#21262d" stroke="#30363d" stroke-width="1" rx="4" ry="4" />
    <rect x="20" y="314" width="40" height="40" fill="#21262d" stroke="#30363d" stroke-width="1" rx="4" ry="4" />
    <rect x="62" y="314" width="40" height="40" fill="#21262d" stroke="#30363d" stroke-width="1" rx="4" ry="4" />
    <rect x="104" y="314" width="40" height="40" fill="#21262d" stroke="#30363d" stroke-width="1" rx="4" ry="4" />
    <rect x="146" y="314" width="40" height="40" fill="#21262d" stroke="#30363d" stroke-width="1" rx="4" ry="4" />
    <rect x="188" y="314" width="40" height="40" fill="#21262d" stroke="#30363d" stroke-width="1" rx="4" ry="4" />
    <rect x="230" y="314" width="40" height="40" fill="#21262d" stroke="#30363d" stroke-width="1" rx="4" ry="4" />
    <rect x="272" y="314" width="40" height="40" fill="#21262d" stroke="#30363d" stroke-width="1" rx="4" ry="4" />
    <rect x="314" y="314" width="40" height="40" fill="#21262d" stroke="#30363d" stroke-width="1" rx="4" ry="4" />
    <rect x="356" y="314" width="40" height="40" fill="#21262d" stroke="#30363d" stroke-width="1" rx="4" ry="4" />
    <rect x="398" y="314" width="40" height="40" fill="#21262d" stroke="#30363d" stroke-width="1" rx="4" ry="4" />
    <rect x="440" y="314" width="40" height="40" fill="#21262d" stroke="#30363d" stroke-width="1" rx="4" ry="4" />
    <rect x="482" y="314" width="40" height="40" fill="#21262d" stroke="#30363d" stroke-width="1" rx="4" ry="4" />
    <rect x="524" y="314" width="40" height="40" fill="#21262d" stroke="#30363d" stroke-width="1" rx="4" ry="4" />
    <rect x="566" y="314" width="40" height="40" fill="#21262d" stroke="#30363d" stroke-width="1" rx="4" ry="4" />
    <rect x="608" y="314" width="40" height="40" fill="#21262d" stroke="#30363d" stroke-width="1" rx="4" ry="4" />
    <rect x="650" y="314" width="40" height="40" fill="#21262d" stroke="#30363d" stroke-width="1" rx="4" ry="4" />
    <rect x="692" y="314" width="40" height="40" fill="#21262d" stroke="#30363d" stroke-width="1" rx="4" ry="4" />
    <rect x="734" y="314" width="40" height="40" fill="#21262d" stroke="#30363d" stroke-width="1" rx="4" ry="4" />
    <rect x="776" y="314" width="40" height="40" fill="#21262d" stroke="#30363d" stroke-width="1" rx="4" ry="4" />
    <rect x="818" y="314" width="40" height="40" fill="#21262d" stroke="#30363d" stroke-width="1" rx="4" ry="4" />
    <rect x="20" y="356" width="40" height="40" fill="#21262d" stroke="#30363d" stroke-width="1" rx="4" ry="4" />
    <rect x="62" y="356" width="40" height="40" fill="#21262d" stroke="#30363d" stroke-width="1" rx="4" ry="4" />
    <rect x="104" y="356" width="40" height="40" fill="#21262d" stroke="#30363d" stroke-width="1" rx="4" ry="4" />
    <rect x="146" y="356" width="40" height="40" fill="#21262d" stroke="#30363d" stroke-width="1" rx="4" ry="4" />
    <rect x="188" y="356" width="40" height="40" fill="#21262d" stroke="#30363d" stroke-width="1" rx="4" ry="4" />
    <rect x="230" y="356" width="40" height="40" fill="#21262d" stroke="#30363d" stroke-width="1" rx="4" ry="4" />
    <rect x="272" y="356" width="40" height="40" fill="#21262d" stroke="#30363d" stroke-width="1" rx="4" ry="4" />
    <rect x="314" y="356" width="40" height="40" fill="#21262d" stroke="#30363d" stroke-width="1" rx="4" ry="4" />
    <rect x="356" y="356" width="40" height="40" fill="#21262d" stroke="#30363d" stroke-width="1" rx="4" ry="4" />
    <rect x="398" y="356" width="40" height="40" fill="#21262d" stroke="#30363d" stroke-width="1" rx="4" ry="4" />
    <rect x="440" y="356" width="40" height="40" fill="#21262d" stroke="#30363d" stroke-width="1" rx="4" ry="4" />
    <rect x="482" y="356" width="40" height="40" fill="#21262d" stroke="#30363d" stroke-width="1" rx="4" ry="4" />
    <rect x="524" y="356" width="40" height="40" fill="#21262d" stroke="#30363d" stroke-width="1" rx="4" ry="4" />
    <rect x="566" y="356" width="40" height="40" fill="#21262d" stroke="#30363d" stroke-width="1" rx="4" ry="4" />
    <rect x="608" y="356" width="40" height="40" fill="#21262d" stroke="#30363d" stroke-width="1" rx="4" ry="4" />
    <rect x="650" y="356" width="40" height="40" fill="#21262d" stroke="#30363d" stroke-width="1" rx="4" ry="4" />
    <rect x="692" y="356" width="40" height="40" fill="#21262d" stroke="#30363d" stroke-width="1" rx="4" ry="4" />
    <rect x="734" y="356" width="40" height="40" fill="#21262d" stroke="#30363d" stroke-width="1" rx="4" ry="4" />
    <rect x="776" y="356" width="40" height="40" fill="#21262d" stroke="#30363d" stroke-width="1" rx="4" ry="4" />
    <rect x="818" y="356" width="40" height="40" fill="#21262d" stroke="#30363d" stroke-width="1" rx="4" ry="4" />
    <rect x="20" y="398" width="40" height="40" fill="#21262d" stroke="#30363d" stroke-width="1" rx="4" ry="4" />
    <rect x="62" y="398" width="40" height="40" fill="#21262d" stroke="#30363d" stroke-width="1" rx="4" ry="4" />
    <rect x="104" y="398" width="40" height="40" fill="#21262d" stroke="#30363d" stroke-width="1" rx="4" ry="4" />
    <rect x="146" y="398" width="40" height="40" fill="#21262d" stroke="#30363d" stroke-width="1" rx="4" ry="4" />
    <rect x="188" y="398" width="40" height="40" fill="#21262d" stroke="#30363d" stroke-width="1" rx="4" ry="4" />
    <rect x="230" y="398" width="40" height="40" fill="#21262d" stroke="#30363d" stroke-width="1" rx="4" ry="4" />
    <rect x="272" y="398" width="40" height="40" fill="#21262d" stroke="#30363d" stroke-width="1" rx="4" ry="4" />
    <rect x="314" y="398" width="40" height="40" fill="#21262d" stroke="#30363d" stroke-width="1" rx="4" ry="4" />
    <rect x="356" y="398" width="40" height="40" fill="#21262d" stroke="#30363d" stroke-width="1" rx="4" ry="4" />
    <rect x="398" y="398" width="40" height="40" fill="#21262d" stroke="#30363d" stroke-width="1" rx="4" ry="4" />
    <rect x="440" y="398" width="40" height="40" fill="#21262d" stroke="#30363d" stroke-width="1" rx="4" ry="4" />
    <rect x="482" y="398" width="40" height="40" fill="#21262d" stroke="#30363d" stroke-width="1" rx="4" ry="4" />
    <rect x="524" y="398" width="40" height="40" fill="#21262d" stroke="#30363d" stroke-width="1" rx="4" ry="4" />
    <rect x="566" y="398" width="40" height="40" fill="#21262d" stroke="#30363d" stroke-width="1" rx="4" ry="4" />
    <rect x="608" y="398" width="40" height="40" fill="#21262d" stroke="#30363d" stroke-width="1" rx="4" ry="4" />
    <rect x="650" y="398" width="40" height="40" fill="#21262d" stroke="#30363d" stroke-width="1" rx="4" ry="4" />
    <rect x="692" y="398" width="40" height="40" fill="#21262d" stroke="#30363d" stroke-width="1" rx="4" ry="4" />
    <rect x="734" y="398" width="40" height="40" fill="#21262d" stroke="#30363d" stroke-width="1" rx="4" ry="4" />
    <rect x="776" y="398" width="40" height="40" fill="#21262d" stroke="#30363d" stroke-width="1" rx="4" ry="4" />
    <rect x="818" y="398" width="40" height="40" fill="#21262d" stroke="#30363d" stroke-width="1" rx="4" ry="4" />
    <rect x="20" y="440" width="40" height="40" fill="#21262d" stroke="#30363d" stroke-width="1" rx="4" ry="4" />
    <rect x="62" y="440" width="40" height="40" fill="#21262d" stroke="#30363d" stroke-width="1" rx="4" ry="4" />
    <rect x="104" y="440" width="40" height="40" fill="#21262d" stroke="#30363d" stroke-width="1" rx="4" ry="4" />
    <rect x="146" y="440" width="40" height="40" fill="#21262d" stroke="#30363d" stroke-width="1" rx="4" ry="4" />
    <rect x="188" y="440" width="40" height="40" fill="#21262d" stroke="#30363d" stroke-width="1" rx="4" ry="4" />
    <rect x="230" y="440" width="40" height="40" fill="#21262d" stroke="#30363d" stroke-width="1" rx="4" ry="4" />
    <rect x="272" y="440" width="40" height="40" fill="#21262d" stroke="#30363d" stroke-width="1" rx="4" ry="4" />
    <rect x="314" y="440" width="40" height="40" fill="#21262d" stroke="#30363d" stroke-width="1" rx="4" ry="4" />
    <rect x="356" y="440" width="40" height="40" fill="#21262d" stroke="#30363d" stroke-width="1" rx="4" ry="4" />
    <rect x="398" y="440" width="40" height="40" fill="#21262d" stroke="#30363d" stroke-width="1" rx="4" ry="4" />
    <rect x="440" y="440" width="40" height="40" fill="#21262d" stroke="#30363d" stroke-width="1" rx="4" ry="4" />
    <rect x="482" y="440" width="40" height="40" fill="#21262d" stroke="#30363d" stroke-width="1" rx="4" ry="4" />
    <rect x="524" y="440" width="40" height="40" fill="#21262d" stroke="#30363d" stroke-width="1" rx="4" ry="4" />
    <rect x="566" y="440" width="40" height="40" fill="#21262d" stroke="#30363d" stroke-width="1" rx="4" ry="4" />
    <rect x="608" y="440" width="40" height="40" fill="#21262d" stroke="#30363d" stroke-width="1" rx="4" ry="4" />
    <rect x="650" y="440" width="40" height="40" fill="#21262d" stroke="#30363d" stroke-width="1" rx="4" ry="4" />
    <rect x="692" y="440" width="40" height="40" fill="#21262d" stroke="#30363d" stroke-width="1" rx="4" ry="4" />
    <rect x="734" y="440" width="40" height="40" fill="#21262d" stroke="#30363d" stroke-width="1" rx="4" ry="4" />
    <rect x="776" y="440" width="40" height="40" fill="#21262d" stroke="#30363d" stroke-width="1" rx="4" ry="4" />
    <rect x="818" y="440" width="40" height="40" fill="#21262d" stroke="#30363d" stroke-width="1" rx="4" ry="4" />
    <rect x="20" y="482" width="40" height="40" fill="#21262d" stroke="#30363d" stroke-width="1" rx="4" ry="4" />
    <rect x="62" y="482" width="40" height="40" fill="#21262d" stroke="#30363d" stroke-width="1" rx="4" ry="4" />
    <rect x="104" y="482" width="40" height="40" fill="#21262d" stroke="#30363d" stroke-width="1" rx="4" ry="4" />
    <rect x="146" y="482" width="40" height="40" fill="#21262d" stroke="#30363d" stroke-width="1" rx="4" ry="4" />
    <rect x="188" y="482" width="40" height="40" fill="#21262d" stroke="#30363d" stroke-width="1" rx="4" ry="4" />
    <rect x="230" y="482" width="40" height="40" fill="#21262d" stroke="#30363d" stroke-width="1" rx="4" ry="4" />
    <rect x="272" y="482" width="40" height="40" fill="#21262d" stroke="#30363d" stroke-width="1" rx="4" ry="4" />
    <rect x="314" y="482" width="40" height="40" fill="#21262d" stroke="#30363d" stroke-width="1" rx="4" ry="4" />
    <rect x="356" y="482" width="40" height="40" fill="#21262d" stroke="#30363d" stroke-width="1" rx="4" ry="4" />
    <rect x="398" y="482" width="40" height="40" fill="#21262d" stroke="#30363d" stroke-width="1" rx="4" ry="4" />
    <rect x="440" y="482" width="40" height="40" fill="#21262d" stroke="#30363d" stroke-width="1" rx="4" ry="4" />
    <rect x="482" y="482" width="40" height="40" fill="#21262d" stroke="#30363d" stroke-width="1" rx="4" ry="4" />
    <rect x="524" y="482" width="40" height="40" fill="#21262d" stroke="#30363d" stroke-width="1" rx="4" ry="4" />
    <rect x="566" y="482" width="40" height="40" fill="#21262d" stroke="#30363d" stroke-width="1" rx="4" ry="4" />
    <rect x="608" y="482" width="40" height="40" fill="#21262d" stroke="#30363d" stroke-width="1" rx="4" ry="4" />
    <rect x="650" y="482" width="40" height="40" fill="#21262d" stroke="#30363d" stroke-width="1" rx="4" ry="4" />
    <rect x="692" y="482" width="40" height="40" fill="#21262d" stroke="#30363d" stroke-width="1" rx="4" ry="4" />
    <rect x="734" y="482" width="40" height="40" fill="#21262d" stroke="#30363d" stroke-width="1" rx="4" ry="4" />
    <rect x="776" y="482" width="40" height="40" fill="#21262d" stroke="#30363d" stroke-width="1" rx="4" ry="4" />
    <rect x="818" y="482" width="40" height="40" fill="#21262d" stroke="#30363d" stroke-width="1" rx="4" ry="4" />
    <rect x="20" y="524" width="40" height="40" fill="#21262d" stroke="#30363d" stroke-width="1" rx="4" ry="4" />
    <rect x="62" y="524" width="40" height="40" fill="#21262d" stroke="#30363d" stroke-width="1" rx="4" ry="4" />
    <rect x="104" y="524" width="40" height="40" fill="#21262d" stroke="#30363d" stroke-width="1" rx="4" ry="4" />
    <rect x="146" y="524" width="40" height="40" fill="#21262d" stroke="#30363d" stroke-width="1" rx="4" ry="4" />
    <rect x="188" y="524" width="40" height="40" fill="#21262d" stroke="#30363d" stroke-width="1" rx="4" ry="4" />
    <rect x="230" y="524" width="40" height="40" fill="#21262d" stroke="#30363d" stroke-width="1" rx="4" ry="4" />
    <rect x="272" y="524" width="40" height="40" fill="#21262d" stroke="#30363d" stroke-width="1" rx="4" ry="4" />
    <rect x="314" y="524" width="40" height="40" fill="#21262d" stroke="#30363d" stroke-width="1" rx="4" ry="4" />
    <rect x="356" y="524" width="40" height="40" fill="#21262d" stroke="#30363d" stroke-width="1" rx="4" ry="4" />
    <rect x="398" y="524" width="40" height="40" fill="#21262d" stroke="#30363d" stroke-width="1" rx="4" ry="4" />
    <rect x="440" y="524" width="40" height="40" fill="#21262d" stroke="#30363d" stroke-width="1" rx="4" ry="4" />
    <rect x="482" y="524" width="40" height="40" fill="#21262d" stroke="#30363d" stroke-width="1" rx="4" ry="4" />
    <rect x="524" y="524" width="40" height="40" fill="#21262d" stroke="#30363d" stroke-width="1" rx="4" ry="4" />
    <rect x="566" y="524" width="40" height="40" fill="#21262d" stroke="#30363d" stroke-width="1" rx="4" ry="4" />
    <rect x="608" y="524" width="40" height="40" fill="#21262d" stroke="#30363d" stroke-width="1" rx="4" ry="4" />
    <rect x="650" y="524" width="40" height="40" fill="#21262d" stroke="#30363d" stroke-width="1" rx="4" ry="4" />
    <rect x="692" y="524" width="40" height="40" fill="#21262d" stroke="#30363d" stroke-width="1" rx="4" ry="4" />
    <rect x="734" y="524" width="40" height="40" fill="#21262d" stroke="#30363d" stroke-width="1" rx="4" ry="4" />
    <rect x="776" y="524" width="40" height="40" fill="#21262d" stroke="#30363d" stroke-width="1" rx="4" ry="4" />
    <rect x="818" y="524" width="40" height="40" fill="#21262d" stroke="#30363d" stroke-width="1" rx="4" ry="4" />
    <rect x="20" y="566" width="40" height="40" fill="#21262d" stroke="#30363d" stroke-width="1" rx="4" ry="4" />
    <rect x="62" y="566" width="40" height="40" fill="#21262d" stroke="#30363d" stroke-width="1" rx="4" ry="4" />
    <rect x="104" y="566" width="40" height="40" fill="#21262d" stroke="#30363d" stroke-width="1" rx="4" ry="4" />
    <rect x="146" y="566" width="40" height="40" fill="#21262d" stroke="#30363d" stroke-width="1" rx="4" ry="4" />
    <rect x="188" y="566" width="40" height="40" fill="#21262d" stroke="#30363d" stroke-width="1" rx="4" ry="4" />
    <rect x="230" y="566" width="40" height="40" fill="#21262d" stroke="#30363d" stroke-width="1" rx="4" ry="4" />
    <rect x="272" y="566" width="40" height="40" fill="#21262d" stroke="#30363d" stroke-width="1" rx="4" ry="4" />
    <rect x="314" y="566" width="40" height="40" fill="#21262d" stroke="#30363d" stroke-width="1" rx="4" ry="4" />
    <rect x="356" y="566" width="40" height="40" fill="#21262d" stroke="#30363d" stroke-width="1" rx="4" ry="4" />
    <rect x="398" y="566" width="40" height="40" fill="#21262d" stroke="#30363d" stroke-width="1" rx="4" ry="4" />
    <rect x="440" y="566" width="40" height="40" fill="#21262d" stroke="#30363d" stroke-width="1" rx="4" ry="4" />
    <rect x="482" y="566" width="40" height="40" fill="#21262d" stroke="#30363d" stroke-width="1" rx="4" ry="4" />
    <rect x="524" y="566" width="40" height="40" fill="#21262d" stroke="#30363d" stroke-width="1" rx="4" ry="4" />
    <rect x="566" y="566" width="40" height="40" fill="#21262d" stroke="#30363d" stroke-width="1" rx="4" ry="4" />
    <rect x="608" y="566" width="40" height="40" fill="#21262d" stroke="#30363d" stroke-width="1" rx="4" ry="4" />
    <rect x="650" y="566" width="40" height="40" fill="#21262d" stroke="#30363d" stroke-width="1" rx="4" ry="4" />
    <rect x="692" y="566" width="40" height="40" fill="#21262d" stroke="#30363d" stroke-width="1" rx="4" ry="4" />
    <rect x="734" y="566" width="40" height="40" fill="#21262d" stroke="#30363d" stroke-width="1" rx="4" ry="4" />
    <rect x="776" y="566" width="40" height="40" fill="#21262d" stroke="#30363d" stroke-width="1" rx="4" ry="4" />
    <rect x="818" y="566" width="40" height="40" fill="#21262d" stroke="#30363d" stroke-width="1" rx="4" ry="4" />
    <rect x="20" y="608" width="40" height="40" fill="#21262d" stroke="#30363d" stroke-width="1" rx="4" ry="4" />
    <rect x="62" y="608" width="40" height="40" fill="#21262d" stroke="#30363d" stroke-width="1" rx="4" ry="4" />
    <rect x="104" y="608" width="40" height="40" fill="#21262d" stroke="#30363d" stroke-width="1" rx="4" ry="4" />
    <rect x="146" y="608" width="40" height="40" fill="#21262d" stroke="#30363d" stroke-width="1" rx="4" ry="4" />
    <rect x="188" y="608" width="40" height="40" fill="#21262d" stroke="#30363d" stroke-width="1" rx="4" ry="4" />
    <rect x="230" y="608" width="40" height="40" fill="#21262d" stroke="#30363d" stroke-width="1" rx="4" ry="4" />
    <rect x="272" y="608" width="40" height="40" fill="#21262d" stroke="#30363d" stroke-width="1" rx="4" ry="4" />
    <rect x="314" y="608" width="40" height="40" fill="#21262d" stroke="#30363d" stroke-width="1" rx="4" ry="4" />
    <rect x="356" y="608" width="40" height="40" fill="#21262d" stroke="#30363d" stroke-width="1" rx="4" ry="4" />
    <rect x="398" y="608" width="40" height="40" fill="#21262d" stroke="#30363d" stroke-width="1" rx="4" ry="4" />
    <rect x="440" y="608" width="40" height="40" fill="#21262d" stroke="#30363d" stroke-width="1" rx="4" ry="4" />
    <rect x="482" y="608" width="40" height="40" fill="#21262d" stroke="#30363d" stroke-width="1" rx="4" ry="4" />
    <rect x="524" y="608" width="40" height="40" fill="#21262d" stroke="#30363d" stroke-width="1" rx="4" ry="4" />
    <rect x="566" y="608" width="40" height="40" fill="#21262d" stroke="#30363d" stroke-width="1" rx="4" ry="4" />
    <rect x="608" y="608" width="40" height="40" fill="#21262d" stroke="#30363d" stroke-width="1" rx="4" ry="4" />
    <rect x="650" y="608" width="40" height="40" fill="#21262d" stroke="#30363d" stroke-width="1" rx="4" ry="4" />
    <rect x="692" y="608" width="40" height="40" fill="#21262d" stroke="#30363d" stroke-width="1" rx="4" ry="4" />
    <rect x="734" y="608" width="40" height="40" fill="#21262d" stroke="#30363d" stroke-width="1" rx="4" ry="4" />
    <rect x="776" y="608" width="40" height="40" fill="#21262d" stroke="#30363d" stroke-width="1" rx="4" ry="4" />
    <rect x="818" y="608" width="40" height="40" fill="#21262d" stroke="#30363d" stroke-width="1" rx="4" ry="4" />
    <text x="880" y="40" fill="#e6edf3" font-size="16" font-weight="bold">TOP PLAYERS</text>
    <rect x="880" y="68" width="16" height="16" fill="#3b49dc" rx="2" ry="2"/>
    <text x="904" y="80" fill="#c9d1d9" font-size="14">Nooorrrr</text>
    <text x="1000" y="80" fill="#8b949e" font-size="14" text-anchor="end">13</text>
    <rect x="880" y="98" width="16" height="16" fill="#3bdcbc" rx="2" ry="2"/>
    <text x="904" y="110" fill="#c9d1d9" font-size="14">eequaled</text>
    <text x="1000" y="110" fill="#8b949e" font-size="14" text-anchor="end">6</text>
    <rect x="880" y="128" width="16" height="16" fill="#dca13b" rx="2" ry="2"/>
    <text x="904" y="140" fill="#c9d1d9" font-size="14">LazyClicks</text>
    <text x="1000" y="140" fill="#8b949e" font-size="14" text-anchor="end">1</text>
    <text x="880" y="680" fill="#8b949e" font-size="12">Moves reset daily</text>
    <rect x="20" y="670" width="840" height="6" fill="#21262d" rx="3" ry="3"/>
    <rect x="20" y="670" width="56.0" height="6" fill="#3fb950" rx="3" ry="3"/>
    <text x="20" y="700" fill="#8b949e" font-size="12">Territory claimed: 20/300 (6%)</text>
    <text x="440" y="700" fill="#8b949e" font-size="12" text-anchor="middle">Board resets monthly</text>
    <text x="860" y="700" fill="#8b949e" font-size="12" text-anchor="end">Last updated: 2026-03-29T18:07:44Z</text>
  </g>
</svg>